<svg width="113" height="101" viewBox="0 0 113 101" fill="none" xmlns="http://www.w3.org/2000/svg">
<rect y="61" width="41.0256" height="40" fill="#E5FF7B"/>
<g clip-path="url(#clip0)">
<path d="M79.6682 26.8018H80.1915C81.0004 26.8018 81.6563 26.1461 81.6563 25.3369C81.6563 24.5277 81.0004 23.8721 80.1915 23.8721H79.6682C78.8592 23.8721 78.2034 24.5277 78.2034 25.3369C78.2034 26.1461 78.8592 26.8018 79.6682 26.8018Z" fill="#262626"/>
<path d="M90.4755 26.8018H90.9987C91.8077 26.8018 92.4636 26.1461 92.4636 25.3369C92.4636 24.5277 91.8077 23.8721 90.9987 23.8721H90.4755C89.6665 23.8721 89.0107 24.5277 89.0107 25.3369C89.0107 26.1461 89.6665 26.8018 90.4755 26.8018Z" fill="#262626"/>
<path d="M101.283 26.8018H101.806C102.615 26.8018 103.271 26.1461 103.271 25.3369C103.271 24.5277 102.615 23.8721 101.806 23.8721H101.283C100.474 23.8721 99.8179 24.5277 99.8179 25.3369C99.8179 26.1461 100.474 26.8018 101.283 26.8018Z" fill="#262626"/>
<path d="M75.9757 35.7005V42.429C75.9757 43.3751 76.5085 44.2101 77.3661 44.6083C78.2112 45.0011 79.1936 44.8821 79.9241 44.2653C82.1366 42.3972 86.3321 38.9544 89.4616 36.3956C89.5831 36.2964 89.7308 36.244 89.8888 36.244H102.093C108.107 36.244 113 31.3509 113 25.3366C113 19.3224 108.107 14.4292 102.093 14.4292H79.3817C73.3675 14.4292 68.4743 19.3224 68.4743 25.3366C68.4743 30.0862 71.4807 34.2272 75.9757 35.7005ZM79.3817 17.3591H102.093C106.491 17.3591 110.07 20.9378 110.07 25.3368C110.07 29.7358 106.491 33.3146 102.093 33.3146H89.8888C89.0593 33.3146 88.2493 33.6032 87.6077 34.1274C84.8419 36.3888 81.2448 39.3396 78.9054 41.2952V35.5294C78.9054 34.3405 78.1485 33.3075 77.0216 32.9591C73.6614 31.9202 71.4038 28.8569 71.4038 25.3368C71.404 20.9378 74.9827 17.3591 79.3817 17.3591Z" fill="#262626"/>
<path d="M106.803 67.4738H104.071C104.07 66.0723 102.93 64.932 101.529 64.932H97.6342C96.4943 64.932 95.5275 65.6859 95.2057 66.7213H69.3236C68.3348 66.7213 66.7213 67.0437 64.7539 67.5664V25.2971C64.7539 23.3984 63.2092 21.8537 61.3105 21.8537H51.5027C51.3932 20.5062 50.2637 19.4424 48.8885 19.4424H45.6477C44.2898 16.6064 41.4008 14.7812 38.2518 14.7812C35.1027 14.7812 32.2137 16.6066 30.8559 19.4424H27.615C26.2398 19.4424 25.1102 20.5061 25.0008 21.8537H16.4434C14.5447 21.8537 13 23.3984 13 25.2971V46.1057C13 46.9148 13.6559 47.5705 14.4648 47.5705C15.2738 47.5705 15.9297 46.9148 15.9297 46.1057V25.2971C15.9297 25.0139 16.1602 24.7834 16.4434 24.7834H19.9645C19.9391 24.9514 19.9219 25.1221 19.9219 25.2971V75.2053C19.9219 77.1039 21.4666 78.6486 23.3652 78.6486H51.8344C55.1346 79.843 58.7041 81.0779 61.8242 82.0297V82.1291C61.8242 82.4111 61.5938 82.6406 61.3105 82.6406H16.4434C16.1602 82.6406 15.9297 82.4111 15.9297 82.1291V52.9416C15.9297 52.1324 15.2738 51.4768 14.4648 51.4768C13.6559 51.4768 13 52.1324 13 52.9416V82.1291C13 84.0266 14.5447 85.5703 16.4434 85.5703H61.3105C62.9615 85.5703 64.3438 84.4025 64.6764 82.8502C66.6781 83.3848 68.3211 83.7156 69.3236 83.7156C72.1037 83.7156 82.5547 83.7158 83.3141 83.7158C84.123 83.7158 84.7789 83.0603 84.7789 82.2512C84.7789 81.4422 84.1232 80.7861 83.3141 80.7861H73.4506C74.2768 79.5621 74.824 78.1625 75.0438 76.6836H95.0914V80.7863H90.15C89.341 80.7863 88.6852 81.442 88.6852 82.2512C88.6852 83.0602 89.3408 83.716 90.15 83.716H95.2055C95.5271 84.7514 96.4941 85.5055 97.634 85.5055H101.528C102.93 85.5055 104.07 84.3654 104.071 82.9637H106.802C109.143 82.9637 111.046 81.0598 111.046 78.7197V71.7178C111.047 69.3777 109.143 67.4738 106.803 67.4738ZM61.8242 25.2971V68.408C60.5521 68.7963 59.2051 69.2314 57.832 69.6918V25.2971C57.832 25.1221 57.8147 24.9514 57.7895 24.7834H61.3105C61.5938 24.7836 61.8242 25.0139 61.8242 25.2971ZM51.0613 75.2482C51.0516 75.2445 51.0455 75.2416 51.0434 75.2412C51.0389 75.2283 51.0389 75.2041 51.0387 75.2002C51.0387 75.2002 51.0449 75.1957 51.0613 75.1894C53.7428 74.2033 56.2131 73.3307 58.4225 72.5861V77.8518C56.2129 77.1072 53.7428 76.2344 51.0613 75.2482ZM30.991 22.3723C32.0488 22.3723 33.0193 21.748 33.4635 20.7818C34.3211 18.9164 36.2006 17.7109 38.2518 17.7109C40.3029 17.7109 42.1824 18.9164 43.04 20.7818C43.4842 21.7479 44.4547 22.3723 45.5125 22.3723H48.584V25.1795H27.9195V23.3281C27.9195 23.325 27.9199 23.3219 27.9199 23.3187C27.9199 23.3156 27.9195 23.3125 27.9195 23.3094V22.3725H30.991V22.3723ZM22.8516 75.2055V25.2973C22.8516 25.0141 23.082 24.7836 23.3652 24.7836H24.9898V25.484C24.9898 26.9316 26.1676 28.1092 27.615 28.1092H48.8885C50.3359 28.1092 51.5137 26.9316 51.5137 25.484V24.7836H54.3887C54.6719 24.7836 54.9023 25.0141 54.9023 25.2973V70.6967C53.2451 71.2766 51.5998 71.8703 50.0504 72.44C48.8721 72.8734 48.1107 73.9643 48.1107 75.2191C48.1107 75.3894 48.126 75.556 48.1531 75.7191H23.3652C23.082 75.7191 22.8516 75.4887 22.8516 75.2055ZM61.3521 78.8125V71.6256C68.3186 69.4113 69.3629 69.6721 69.4875 69.651C71.2102 70.9803 72.2266 73.0305 72.2266 75.2184C72.2266 77.4064 71.2102 79.457 69.4875 80.7863C69.3127 80.7564 68.4486 81.0678 61.3521 78.8125ZM75.0439 73.7541C74.8242 72.275 74.277 70.8752 73.4508 69.651H95.0914V73.7541H75.0439ZM101.141 82.576H98.0211V67.8617H101.141V82.576ZM108.117 78.7199C108.117 79.4447 107.527 80.0342 106.803 80.0342H104.071V70.4033H106.803C107.527 70.4033 108.117 70.9932 108.117 71.7178V78.7199Z" fill="#262626"/>
<path d="M39.2848 45.0234C37.4013 45.0738 36.4595 45.7129 36.4595 46.9405C36.4595 48.1009 37.3845 48.9165 39.2343 49.3873L39.2595 49.4126C39.2764 49.4126 39.2932 49.4126 39.31 49.4126C39.3604 49.4294 39.4025 49.421 39.4361 49.3873C39.4697 49.3369 39.4866 49.2864 39.4866 49.236V45.2504C39.4866 45.0991 39.4193 45.0234 39.2848 45.0234ZM39.5622 57.2576C41.3616 57.1399 42.2613 56.4084 42.2613 55.063C42.2613 54.4408 42.0595 53.9279 41.6559 53.5243C41.2523 53.1207 40.546 52.7759 39.537 52.4901C39.4025 52.4564 39.3352 52.5069 39.3352 52.6414V57.0558C39.3352 57.1903 39.4109 57.2576 39.5622 57.2576ZM36.8379 51.6072C34.3827 50.5477 33.155 48.9922 33.155 46.9405C33.155 45.5279 33.6679 44.4096 34.6938 43.5855C35.7364 42.7615 37.2667 42.3411 39.2848 42.3243C39.4193 42.3243 39.4866 42.2486 39.4866 42.0973V41.063C39.4866 40.7099 39.6043 40.4156 39.8397 40.1801C40.092 39.9279 40.3947 39.8018 40.7478 39.8018C41.101 39.8018 41.3953 39.9279 41.6307 40.1801C41.883 40.4156 42.0091 40.7099 42.0091 41.063V42.2738C42.0091 42.3915 42.0764 42.4672 42.2109 42.5009C42.6818 42.5513 43.1442 42.627 43.5983 42.7279C44.0187 42.812 44.355 43.0222 44.6073 43.3585C44.8764 43.6949 45.0109 44.0816 45.0109 44.5189V44.5946C45.0109 44.9477 44.8679 45.2252 44.5821 45.427C44.313 45.612 44.0019 45.6624 43.6487 45.5783C43.161 45.4438 42.6818 45.3429 42.2109 45.2756C42.0764 45.242 42.0091 45.3009 42.0091 45.4522V49.8919V50.018C41.9755 50.1525 42.0259 50.2534 42.1604 50.3207C43.4217 50.8588 44.313 51.4979 44.8343 52.2378C45.3725 52.9777 45.6415 53.9027 45.6415 55.0126C45.6415 56.5429 45.1202 57.7369 44.0776 58.5946C43.0517 59.4354 41.5298 59.8895 39.5118 59.9567C39.3941 59.9567 39.3352 60.0324 39.3352 60.1837V61.2432C39.3352 61.5964 39.2091 61.8907 38.9568 62.1261C38.7214 62.3783 38.4271 62.5045 38.0739 62.5045C37.7208 62.5045 37.4181 62.3783 37.1658 62.1261C36.9304 61.8907 36.8127 61.5964 36.8127 61.2432V60.0576C36.8127 59.9231 36.7286 59.839 36.5604 59.8054C36.0727 59.7381 35.5346 59.6204 34.946 59.4522C34.5424 59.3345 34.2145 59.0991 33.9622 58.7459C33.7268 58.3759 33.6091 57.9723 33.6091 57.5351V57.3333C33.6091 57.0138 33.7436 56.7615 34.0127 56.5765C34.2986 56.3916 34.5929 56.3663 34.8956 56.5009C35.4673 56.7363 36.0307 56.9129 36.5857 57.0306C36.6361 57.0474 36.6866 57.039 36.737 57.0054C36.7875 56.9549 36.8127 56.9045 36.8127 56.854V52.4144C36.8127 52.1958 36.8463 52.0192 36.9136 51.8846C36.9809 51.7501 36.9556 51.6576 36.8379 51.6072Z" fill="#262626"/>
</g>
<defs>
<clipPath id="clip0">
<rect width="100" height="100" fill="white" transform="translate(13)"/>
</clipPath>
</defs>
</svg>
