<svg width="110" height="100" viewBox="0 0 110 100" fill="none" xmlns="http://www.w3.org/2000/svg">
<rect x="70" y="19" width="40" height="40" fill="#E5FF7B"/>
<g clip-path="url(#clip0)">
<path d="M96.582 28.6898H92.4105L89.3596 25.0217L93.9861 19.4594C94.724 18.5723 94.8781 17.3721 94.3883 16.3271C93.8982 15.2824 92.8773 14.6334 91.7232 14.6334H75.5662C74.757 14.6334 74.1014 15.2892 74.1014 16.0982V28.6898H38.5125C39.0828 27.2648 39.3887 25.7291 39.3887 24.1586C39.3887 17.2369 33.6357 11.6195 26.583 11.9414C20.2971 12.2314 15.1824 17.3859 14.9389 23.6766C14.8719 25.4191 15.176 27.1223 15.8014 28.6898H3.41797C1.5334 28.6898 0 30.2232 0 32.1078V41.2152C0 42.0242 0.655664 42.6801 1.46484 42.6801C2.27402 42.6801 2.92969 42.0242 2.92969 41.2152V32.1078C2.92969 31.8387 3.14863 31.6195 3.41797 31.6195H17.4717C18.1801 32.5383 19.024 33.3637 19.99 34.0633C20.4432 34.392 20.7031 34.8801 20.7031 35.4027V36.148C19.7334 36.3832 19.0104 37.2562 19.0104 38.2973V44.1318C19.0104 45.3525 20.0033 46.3453 21.224 46.3453H33.0945C34.3152 46.3453 35.3082 45.3523 35.3082 44.1318V38.2973C35.3082 37.2562 34.585 36.383 33.6152 36.148V35.4047C33.6152 34.8838 33.8553 34.4019 34.26 34.114C35.25 33.4064 36.1164 32.5629 36.8422 31.6197H74.1012V44.5439C71.7527 45.1881 70.0215 47.3402 70.0215 49.8904C70.0215 52.9476 72.5086 55.4349 75.566 55.4349C78.6234 55.4349 81.1105 52.9476 81.1105 49.8904C81.1105 47.3404 79.3795 45.1883 77.0309 44.5439V35.41H91.723C92.877 35.41 93.8982 34.7609 94.3881 33.7162C94.7053 33.04 94.751 32.2992 94.5447 31.6199H96.582C96.8514 31.6199 97.0703 31.8391 97.0703 32.1082V83.1492C97.0703 83.4183 96.8514 83.6375 96.582 83.6375H87.5391C86.7299 83.6375 86.0742 84.2933 86.0742 85.1023C86.0742 85.9113 86.7299 86.5672 87.5391 86.5672H96.582C98.4666 86.5672 100 85.0338 100 83.1492V32.1082C100 30.2232 98.4666 28.6898 96.582 28.6898ZM32.3785 43.4158H21.94V39.0133H22.1529C22.158 39.0133 22.1629 39.014 22.168 39.014C22.173 39.014 22.1779 39.0133 22.183 39.0133H32.1354C32.1404 39.0133 32.1453 39.014 32.1504 39.014C32.1555 39.014 32.1604 39.0133 32.1654 39.0133H32.3785V43.4158ZM32.5588 31.7287C31.3859 32.5633 30.6855 33.9375 30.6855 35.4047V36.0836H23.6328V35.4027C23.6328 33.9517 22.9137 32.5642 21.7088 31.691C19.1826 29.8617 17.7463 26.9076 17.866 23.7894C18.0512 19.0072 21.9393 15.0883 26.7174 14.868C32.0789 14.6221 36.4588 18.89 36.4588 24.1586C36.459 27.1531 35 29.9838 32.5588 31.7287ZM78.1809 49.8902C78.1809 51.332 77.0078 52.5051 75.566 52.5051C74.1242 52.5051 72.9512 51.332 72.9512 49.8902C72.9512 48.4486 74.1242 47.2756 75.566 47.2756C77.0078 47.2756 78.1809 48.4484 78.1809 49.8902ZM91.7375 32.4789C91.7375 32.4789 91.7332 32.4799 91.723 32.4799H77.0309V30.1621C77.0309 30.1596 77.0312 30.1572 77.0312 30.1545C77.0312 30.1517 77.0309 30.1494 77.0309 30.1469V17.5609H91.7275C91.7326 17.5656 91.7394 17.5777 91.7336 17.5859L86.7963 23.5219C86.0736 24.391 86.0736 25.6523 86.7965 26.5217L90.5664 31.0494C90.5871 31.0764 90.609 31.1023 90.6314 31.1277L91.7394 32.4584C91.7394 32.4654 91.7334 32.4789 91.7375 32.4789Z" fill="#262626"/>
<path d="M80.7031 83.6369H43.8242V75.5928C45.0815 75.3574 46.0363 74.2535 46.0363 72.9291V66.0014C46.0363 65.5863 45.9398 65.1945 45.7727 64.8426C47.6268 62.1922 48.035 59.3941 46.9771 56.5088C46.04 53.9523 43.9586 51.2992 40.4266 48.1592C39.3943 47.2416 37.8379 47.2416 36.8061 48.1592C33.2738 51.2994 31.192 53.9525 30.2545 56.5086C29.1961 59.3945 29.6041 62.193 31.4586 64.8435C31.2916 65.1953 31.1953 65.5867 31.1953 66.0014V72.9291C31.1953 74.2531 32.1496 75.3568 33.4062 75.5926V83.6367H23.5844V81.04C23.5844 80.2308 22.9287 79.5752 22.1195 79.5752C21.3105 79.5752 20.6547 80.231 20.6547 81.04V85.0922C20.6547 85.0953 20.6543 85.0984 20.6543 85.1015C20.6543 85.1047 20.6547 85.1078 20.6547 85.1109V93.8629H16.6404V74.1008C18.0863 73.8836 19.4549 73.3496 20.6549 72.5457V74.2041C20.6549 75.0131 21.3105 75.6689 22.1197 75.6689C22.9289 75.6689 23.5846 75.0131 23.5846 74.2041V69.073C23.5846 69.0715 23.5846 69.0701 23.5846 69.0685V68.4363C23.5846 65.3959 20.5127 56.4043 17.9357 49.3971C17.5055 48.2266 16.4217 47.4701 15.175 47.4699C13.9281 47.4699 12.8443 48.2264 12.4139 49.3969C9.8375 56.4029 6.76602 65.3932 6.76602 68.4363V83.6367H3.41797C3.14863 83.6367 2.92969 83.4176 2.92969 83.1484V48.0508C2.92969 47.2418 2.27402 46.5859 1.46484 46.5859C0.655664 46.5859 0 47.2418 0 48.0508V83.1484C0 85.033 1.5334 86.5664 3.41797 86.5664H6.76582V94.3525C6.76582 95.698 7.86074 96.7926 9.20703 96.7926H21.143C22.4893 96.7926 23.5844 95.698 23.5844 94.3523V86.5664H33.4062V94.3515C33.4062 95.6978 34.5014 96.7929 35.8477 96.7929H41.3828C42.7291 96.7929 43.8242 95.6978 43.8242 94.3515V86.5664H80.7031C81.5123 86.5664 82.168 85.9105 82.168 85.1015C82.168 84.2926 81.5123 83.6369 80.7031 83.6369ZM9.69551 68.592V68.4365C9.69551 67.2857 10.3879 64.5228 11.6396 60.5834H18.71C19.9621 64.524 20.6549 67.2869 20.6549 68.4365V68.5924C17.8811 72.1807 12.4689 72.1801 9.69551 68.592ZM15.1635 50.4084C15.1646 50.4049 15.166 50.4021 15.1668 50.4C15.174 50.3984 15.1813 50.3967 15.1789 50.3916C15.1803 50.3939 15.183 50.3992 15.1863 50.4082C16.1566 53.0467 17.0158 55.4781 17.7494 57.6537H12.6004C13.334 55.4781 14.1932 53.0467 15.1635 50.4084ZM9.69551 72.5455C10.8957 73.3494 12.2645 73.8836 13.7107 74.1008V93.8631H9.69551V72.5455ZM34.125 72.7113V66.2193H43.1066V72.7113C41.1227 72.7113 36.0621 72.7113 34.125 72.7113ZM38.6162 50.4705C44.6428 55.8643 46.0092 59.5422 43.2848 63.2896H33.9459C31.2221 59.5428 32.5889 55.865 38.6162 50.4705ZM40.8945 93.8635H36.3359V75.641H40.8945V93.8635Z" fill="#262626"/>
<path d="M27.1592 9.57432C27.9684 9.57432 28.6241 8.91846 28.6241 8.10947V4.67236C28.6241 3.86338 27.9684 3.20752 27.1592 3.20752C26.3501 3.20752 25.6944 3.86338 25.6944 4.67236V8.10947C25.6944 8.91846 26.3501 9.57432 27.1592 9.57432Z" fill="#262626"/>
<path d="M16.6075 12.1046C17.1796 12.6764 18.1069 12.6768 18.679 12.1046C19.2513 11.5325 19.2513 10.605 18.6792 10.0329L16.2268 7.58035C15.6546 7.00847 14.727 7.00828 14.1554 7.58035C13.5831 8.15242 13.5831 9.07996 14.1552 9.65203L16.6075 12.1046Z" fill="#262626"/>
<path d="M37.7112 12.1048L40.1638 9.65203C40.7358 9.07996 40.7358 8.15242 40.1636 7.58035C39.5917 7.00828 38.6641 7.00847 38.0921 7.58035L35.6395 10.0331C35.0675 10.6052 35.0675 11.5327 35.6397 12.1048C36.2114 12.6768 37.139 12.6766 37.7112 12.1048Z" fill="#262626"/>
<path d="M53.7016 50.8804H50.1953C49.3861 50.8804 48.7305 51.5362 48.7305 52.3452C48.7305 53.1542 49.3861 53.8101 50.1953 53.8101H53.7016C55.1482 53.8101 56.3254 54.987 56.3254 56.4337V70.2155C56.3254 75.9241 60.9695 80.5683 66.6781 80.5683C72.3869 80.5683 77.0311 75.9241 77.0311 70.2155V64.3804L79.5654 66.3054C79.8303 66.5065 80.1416 66.604 80.4504 66.6038C80.8928 66.6038 81.3299 66.4044 81.6182 66.0249C82.1074 65.3808 81.9818 64.4618 81.3377 63.9724L76.4524 60.2614C76.1918 60.0632 75.8664 59.963 75.5662 59.963C75.566 59.963 75.566 59.963 75.5658 59.963C75.2705 59.9632 74.9504 60.0577 74.6805 60.2614L69.7949 63.9724C69.1506 64.4616 69.0252 65.3806 69.5143 66.0249C70.0033 66.6692 70.9229 66.795 71.5668 66.3054L74.1016 64.3802V70.2155C74.1016 74.3087 70.7715 77.6386 66.6783 77.6386C62.5854 77.6386 59.2553 74.3085 59.2553 70.2155V56.4337C59.2551 53.3716 56.7639 50.8804 53.7016 50.8804Z" fill="#262626"/>
</g>
<defs>
<clipPath id="clip0">
<rect width="100" height="100" fill="white"/>
</clipPath>
</defs>
</svg>
