<svg width="103" height="100" viewBox="0 0 103 100" fill="none" xmlns="http://www.w3.org/2000/svg">
<rect y="25" width="42.1053" height="40" fill="#E5FF7B"/>
<g clip-path="url(#clip0)">
<path d="M67.0801 26.8883L66.992 26.8022C64.3668 24.2527 61.0946 22.5494 57.5295 21.8762C56.7331 21.7259 55.9685 22.2488 55.8184 23.0437C55.6682 23.8387 56.1911 24.6047 56.9859 24.7548C59.9849 25.3209 62.7391 26.7556 64.9468 28.8996L65.0275 28.9786C67.2269 31.1445 68.7172 33.8891 69.3372 36.9155C69.4989 37.7054 70.2704 38.2192 71.0661 38.0565C71.8587 37.8941 72.3695 37.12 72.207 36.3274C71.47 32.7299 69.6983 29.4671 67.0801 26.8883Z" fill="#262626"/>
<path d="M84.1857 64.3741C83.5761 63.8427 82.6507 63.9058 82.1191 64.5153C80.9217 65.888 80.1303 66.6154 78.1601 68.6359C78.0187 68.4652 77.8683 68.3003 77.7083 68.1427L64.9251 55.5534L67.1889 53.2552C69.7976 50.6063 71.5464 47.284 72.2466 43.6476C72.3996 42.8532 71.8795 42.0855 71.0853 41.9322C70.2916 41.7794 69.5227 42.2995 69.3699 43.0937C68.7793 46.1607 67.3033 48.9637 65.1016 51.1994L62.8377 53.4978L59.6095 50.3188C59.1719 49.8879 58.6873 49.5337 58.1733 49.2528L60.611 46.7788C62.373 44.9893 63.3672 42.509 63.339 39.9731C63.3109 37.4631 62.3238 35.1372 60.56 33.4245C58.7884 31.7032 56.452 30.7655 53.9815 30.7843C51.4877 30.8048 49.1505 31.7945 47.4 33.5714L40.8609 40.2119C40.2935 40.7883 40.3005 41.7158 40.8769 42.2832C41.4531 42.8509 42.3806 42.8437 42.9484 42.2673L49.4873 35.627C50.6889 34.4073 52.2934 33.7279 54.0047 33.7139C55.6987 33.6978 57.3026 34.3444 58.5188 35.5261C59.7188 36.6913 60.3904 38.2823 60.4096 40.0061C60.4294 41.7667 59.7419 43.4861 58.5239 44.7232L54.8361 48.4665C53.2393 48.523 51.6604 49.1637 50.4534 50.3892L48.7108 52.1585C46.2058 54.7021 46.2372 58.8098 48.7808 61.3148L66.8794 79.1385C69.3359 81.5579 73.3147 81.6537 75.8747 79.2241L77.0572 80.3893C77.5895 80.9131 77.8857 81.6124 77.8913 82.3584C77.897 83.1045 77.6115 83.8089 77.0881 84.3406L75.759 85.6886C74.949 86.5123 73.7376 86.7524 72.6735 86.2994L52.5094 77.7057C50.7539 76.9602 48.7539 77.356 47.4143 78.7142L46.5009 79.6413L45.6299 78.7834C44.6333 77.8019 43.0432 77.8259 42.0736 78.8107L30.5035 90.5592C28.4905 92.6031 28.5157 95.9037 30.5596 97.9169C31.4988 98.8418 32.7265 99.3673 34.0364 99.4099C34.1075 99.4122 34.1787 99.4132 34.2503 99.4128C35.64 99.402 36.9424 98.8509 37.9175 97.8607L49.4876 86.1124C50.4631 85.1223 50.4509 83.5316 49.4607 82.5561L48.5884 81.6969L49.501 80.7708C49.9908 80.2743 50.7226 80.1298 51.3628 80.4016L71.5259 88.9946C72.1986 89.2807 72.8998 89.4321 73.5967 89.4545C75.1591 89.5053 76.6998 88.9103 77.8467 87.7438L79.1753 86.3964C80.2482 85.3063 80.8327 83.8643 80.821 82.336C80.8093 80.8071 80.2024 79.3741 79.1128 78.3018L77.9305 77.1368C79.0462 75.9254 79.6524 74.3612 79.6398 72.7064C79.6365 72.2772 79.5916 71.8546 79.5073 71.4435C82.1681 68.7183 83.016 67.9446 84.327 66.4409C84.8586 65.8309 84.7955 64.9057 84.1857 64.3741ZM75.691 75.2434L73.9483 77.0127C72.567 78.4154 70.3226 78.4177 68.9348 77.051L50.8364 59.2274C49.4435 57.8556 49.4265 55.6066 50.7981 54.2137L52.5407 52.4444C53.9124 51.0517 56.1614 51.0345 57.5541 52.4061C59.3698 54.1943 72.787 67.4078 75.6527 70.2299C76.3274 70.8944 76.7028 71.7816 76.7102 72.7287C76.7173 73.6755 76.3555 74.5687 75.691 75.2434ZM35.8304 95.8054C34.9491 96.7002 33.5109 96.7115 32.6156 95.8298C31.7203 94.9483 31.7094 93.5103 32.5909 92.615L43.8701 81.1621C44.5038 81.7861 46.0565 83.3155 47.1095 84.3524L35.8304 95.8054Z" fill="#262626"/>
<path d="M93.8586 35.3133C92.7816 26.3316 88.6407 17.8911 82.1984 11.5468C73.5326 3.0126 61.6072 -1.08826 49.4801 0.294338C40.4064 1.32593 31.8816 5.47621 25.4759 11.9808L14.9653 22.6532C13.6093 24.03 12.8708 25.8523 12.8856 27.7846C12.9004 29.7168 13.6666 31.5276 15.0434 32.8834C17.8854 35.6823 22.4745 35.6475 25.2738 32.8053L27.5786 30.4649C28.9703 29.0519 31.2668 29.0005 32.7142 30.4256C34.1408 31.8307 34.1585 34.1344 32.7536 35.5612L24.2146 44.232C21.8993 46.5828 21.9283 50.3789 24.2794 52.6944C26.6302 55.0097 30.4265 54.9809 32.742 52.6298L38.1821 47.106C38.7497 46.5296 38.7428 45.6021 38.1664 45.0346C37.5898 44.4668 36.6625 44.4738 36.0948 45.0506L30.6547 50.5744C29.4727 51.774 27.5349 51.7888 26.335 50.6074C25.1348 49.4256 25.12 47.4877 26.3018 46.2878L34.8411 37.617C37.3795 35.0391 37.3475 30.8771 34.77 28.3387C32.1877 25.7959 28.0363 25.8257 25.4915 28.4097L23.1867 30.7501C21.5211 32.441 18.7903 32.4617 17.0992 30.7965C16.28 29.9898 15.824 28.9123 15.8152 27.7624C15.8065 26.6125 16.2458 25.5283 17.0526 24.709L27.5632 14.0365C33.5 8.00824 41.401 4.16168 49.8115 3.20547C61.0552 1.92353 72.1106 5.72429 80.1426 13.6345C86.2001 19.5998 89.9371 27.217 90.9496 35.6624C91.9328 43.8615 90.1506 52.2458 85.9315 59.2706C85.515 59.9641 85.7396 60.8639 86.4331 61.2806C86.6546 61.4136 86.8971 61.4811 87.1382 61.4889C87.652 61.5056 88.1593 61.2509 88.4428 60.779C92.9953 53.1988 94.9186 44.155 93.8586 35.3133Z" fill="#262626"/>
<path d="M79.6822 39.929C79.6882 40.7181 80.3168 41.3565 81.0982 41.3819C81.1182 41.3825 81.1381 41.3828 81.158 41.3826C81.967 41.3765 82.6178 40.7156 82.6116 39.9066C82.5531 32.2669 79.5309 25.1149 74.1017 19.768C71.9968 17.6952 69.6039 15.9722 66.9893 14.6475C61.9528 12.0939 56.3095 11.0988 50.6693 11.7675C44.2548 12.5259 38.2272 15.477 33.6971 20.077C33.1294 20.6534 33.1364 21.5809 33.7128 22.1483C34.2892 22.716 35.2167 22.709 35.7844 22.1324C39.9081 17.9452 45.1741 15.367 51.0141 14.6767C56.0792 14.0759 61.1453 14.9688 65.665 17.2606C68.0099 18.4487 70.1569 19.9945 72.0461 21.8553C76.9178 26.6533 79.6297 33.072 79.6822 39.929Z" fill="#262626"/>
</g>
<defs>
<clipPath id="clip0">
<rect width="100" height="100" fill="white" transform="translate(3)"/>
</clipPath>
</defs>
</svg>
