<svg width="104" height="106" viewBox="0 0 104 106" fill="none" xmlns="http://www.w3.org/2000/svg">
<rect x="64" y="66" width="40" height="40" fill="#E5FF7B"/>
<g clip-path="url(#clip0)">
<path d="M5.51495 57.6079V63.6597C5.51495 66.1673 7.55519 68.2073 10.0626 68.2073C12.5704 68.2073 14.6107 66.1673 14.6107 63.6597V57.6079C14.6107 55.1001 12.5704 53.0601 10.0626 53.0601C7.55499 53.0601 5.51495 55.1001 5.51495 57.6079ZM8.44464 57.6079C8.44464 56.7157 9.17042 55.9897 10.0626 55.9897C10.9548 55.9897 11.6808 56.7155 11.6808 57.6079V63.6597C11.6808 64.5519 10.9548 65.2776 10.0626 65.2776C9.17042 65.2776 8.44464 64.5519 8.44464 63.6597V57.6079Z" fill="#262626"/>
<path d="M11.5273 45.8706V42.5425C11.5273 41.7335 10.8715 41.0776 10.0625 41.0776C9.25352 41.0776 8.59766 41.7335 8.59766 42.5425V45.8706C8.59766 46.6796 9.25332 47.3354 10.0625 47.3354C10.8717 47.3354 11.5273 46.6796 11.5273 45.8706Z" fill="#262626"/>
<path d="M8.59766 75.3979V78.7261C8.59766 79.5351 9.25332 80.1909 10.0625 80.1909C10.8717 80.1909 11.5273 79.5351 11.5273 78.7261V75.3979C11.5273 74.589 10.8715 73.9331 10.0625 73.9331C9.25352 73.9331 8.59766 74.589 8.59766 75.3979Z" fill="#262626"/>
<path d="M49.1636 79.928C51.9716 81.8829 55.1903 81.0567 58.0538 79.111C60.8231 77.2296 62.9974 74.5405 63.8036 73.4718C64.2909 72.8259 64.1622 71.9075 63.5163 71.4202C62.8702 70.9329 61.952 71.0616 61.4647 71.7075C60.9042 72.4507 58.8825 75.0061 56.4073 76.6878C55.5599 77.2636 52.9809 79.0161 50.8374 77.5235C48.1536 75.6556 50.2561 67.1317 51.9458 60.2829C54.278 50.8282 56.4809 41.8979 51.2983 39.1034C48.7497 37.7292 45.8296 37.78 42.853 39.2505C39.1319 41.0888 35.2485 45.18 31.9181 50.7706C28.852 55.9173 26.6481 61.6548 25.8716 66.5118C25.744 67.3106 26.288 68.0618 27.0868 68.1895C27.8858 68.3173 28.637 67.7731 28.7647 66.9743C29.4743 62.536 31.5942 57.039 34.435 52.27C37.4356 47.2331 40.9768 43.445 44.1507 41.877C46.2995 40.8157 48.1829 40.7519 49.9079 41.6821C53.0931 43.3995 50.88 52.372 49.1015 59.5811C46.903 68.4923 44.8266 76.9093 49.1636 79.928Z" fill="#262626"/>
<path d="M98.0836 12.4419L96.5027 11.5294C94.6678 10.4698 92.3246 11.0974 91.265 12.9329L89.7775 15.5093C88.5969 15.3669 87.3881 15.9231 86.7557 17.0169L80.1043 28.5378C79.1266 28.2921 78.0742 28.6421 77.4432 29.4544H15.3832V26.3427C15.3832 24.4581 13.8498 22.9247 11.9652 22.9247H11.5273V20.8765C11.5273 19.6929 12.4904 18.73 13.6738 18.73H41.225C44.0229 18.73 46.2992 16.4528 46.2992 13.6538V9.6499C46.2992 8.84092 45.6436 8.18506 44.8344 8.18506C44.0252 8.18506 43.3695 8.84092 43.3695 9.6499V13.6538C43.3695 14.8374 42.4074 15.8003 41.2252 15.8003H13.6738C10.8748 15.8003 8.59766 18.0774 8.59766 20.8765V22.9247H8.15996C6.27539 22.9247 4.74199 24.4581 4.74199 26.3427V29.454H3.41797C1.5332 29.454 0 30.9874 0 32.872V39.6138C0 40.4228 0.655664 41.0786 1.46484 41.0786C2.27402 41.0786 2.92969 40.4228 2.92969 39.6138V32.872C2.92969 32.6028 3.14863 32.3839 3.41797 32.3839H17.1955V88.8849H3.41797C3.14863 88.8849 2.92969 88.6657 2.92969 88.3966V46.4497C2.92969 45.6407 2.27383 44.9849 1.46484 44.9849C0.655859 44.9849 0 45.6407 0 46.4497V88.3966C0 90.2813 1.5334 91.8146 3.41797 91.8146H71.0672C71.8764 91.8146 72.532 91.1587 72.532 90.3497C72.532 89.5407 71.8764 88.8849 71.0672 88.8849H20.1252V32.3841H75.7207L66.7379 47.9431C66.3938 48.5392 66.3023 49.2337 66.4805 49.8983C66.5961 50.3302 66.818 50.7146 67.1217 51.0263L65.0916 54.5411C63.5215 57.2622 64.1125 60.645 66.3248 62.6935L63.9434 66.8181C63.5389 67.5187 63.7789 68.4146 64.4795 68.8192C65.1756 69.2214 66.0732 68.9882 66.4805 68.2831L68.8619 64.1587C71.7492 65.0589 74.9654 63.8774 76.5412 61.1499L78.5693 57.6358C79.6781 57.9151 80.8518 57.4298 81.4313 56.4261L87.8039 45.3882V88.3964C87.8039 88.6655 87.585 88.8847 87.3156 88.8847H77.9035C77.0943 88.8847 76.4387 89.5405 76.4387 90.3495C76.4387 91.1585 77.0943 91.8144 77.9035 91.8144H87.3156C89.2002 91.8144 90.7336 90.281 90.7336 88.3964V40.314L91.9371 38.2294C92.533 37.1972 92.3309 35.9448 91.5541 35.1466L98.2039 23.6274C98.8344 22.5339 98.7119 21.2091 97.9992 20.2569L99.4871 17.6796C100.544 15.8487 99.9146 13.4991 98.0836 12.4419ZM12.4533 29.454H7.67168V26.3425C7.67168 26.0733 7.89062 25.8542 8.15996 25.8542H10.0512C10.0551 25.8542 10.0588 25.8548 10.0625 25.8548C10.0662 25.8548 10.0701 25.8542 10.0738 25.8542H11.965C12.2344 25.8542 12.4533 26.0733 12.4533 26.3425V29.454ZM74.0039 59.6849C72.9861 61.4466 70.7389 62.0499 68.9754 61.0319C67.2189 60.0181 66.6146 57.7634 67.6285 56.0058L69.6092 52.5765L75.9826 56.2561L74.0039 59.6849ZM79.0703 54.656L69.4514 49.1024L79.6045 31.5165C82.3465 33.0997 86.1996 35.3241 89.2234 37.07L79.0703 54.656ZM95.666 22.1636L89.066 33.5964L82.6914 29.9159L89.2922 18.4825C89.3289 18.419 89.41 18.397 89.4736 18.4339L95.6176 21.9802C95.6811 22.0173 95.7027 22.0997 95.666 22.1636ZM96.95 16.2149L95.5852 18.579L92.4375 16.762L93.8025 14.3976C94.0529 13.9638 94.6064 13.8171 95.0381 14.0667L96.6189 14.9792C97.0506 15.2286 97.1992 15.7829 96.95 16.2149Z" fill="#262626"/>
</g>
<defs>
<clipPath id="clip0">
<rect width="100" height="100" fill="white"/>
</clipPath>
</defs>
</svg>
