<svg width="85" height="85" viewBox="0 0 85 85" fill="none" xmlns="http://www.w3.org/2000/svg">
<rect x="24" y="17" width="41.0256" height="40" fill="#E5FF7B"/>
<path d="M83.7549 66.7931C84.4425 66.7931 85 66.2357 85 65.548V11.5597C85 10.3908 84.0497 9.43965 82.8816 9.43965H75.5604V2.12002C75.5604 0.951104 74.6101 0 73.442 0H26.9805C26.648 0 26.3319 0.133477 26.1001 0.36457L15.0038 11.4607C14.7842 11.6809 14.6393 12.0001 14.6393 12.3413V24.6301C14.6393 25.3179 15.1967 25.8752 15.8844 25.8752C16.572 25.8752 17.1295 25.3177 17.1295 24.6301V13.5864H26.1058C27.2745 13.5864 28.2255 12.6356 28.2255 11.4674V2.49023H73.0701V73.0701H17.1295V67.587C17.4125 67.587 33.37 67.5868 35.0356 67.5868C37.6215 67.5868 45.263 64.9764 51.2183 62.7866C52.2134 62.4205 52.8564 61.499 52.8562 60.4392C52.8562 59.3791 52.2131 58.4579 51.2181 58.092C45.2625 55.9018 37.6203 53.291 35.0356 53.291H17.1295V30.4406C17.1295 29.7528 16.572 29.1955 15.8844 29.1955C15.1967 29.1955 14.6393 29.7528 14.6393 30.4406V53.2912H13.3966C13.2414 52.2574 12.3499 51.4615 11.2736 51.4615H8.00478C6.81942 51.4615 5.85521 52.4259 5.85521 53.6109V54.7423H3.57797C1.60504 54.7423 0 56.3474 0 58.3203V62.5578C0 64.5308 1.60504 66.1358 3.57797 66.1358H5.85537V67.2672C5.85537 68.4524 6.81959 69.4166 8.00494 69.4166H11.2736C12.3499 69.4166 13.2414 68.6206 13.3966 67.587H14.6393V73.4418C14.6393 74.6099 15.5895 75.5602 16.7576 75.5602H24.0789V82.8816C24.0789 84.0497 25.0292 85 26.1973 85H82.8816C84.0497 85 85 84.0497 85 82.8816V71.3585C85 70.6707 84.4425 70.1134 83.7549 70.1134C83.0672 70.1134 82.5098 70.6707 82.5098 71.3585V82.5098H26.5691V75.5604H73.442C74.6101 75.5604 75.5604 74.6101 75.5604 73.442V11.9299H82.5098V65.548C82.5098 66.2357 83.0672 66.7931 83.7549 66.7931ZM18.8903 11.0958L25.7351 4.25116V11.0958H18.8903ZM31.5428 55.7812C30.8595 56.8013 30.4056 57.9645 30.221 59.1935H13.423V55.7812H31.5428ZM41.7109 57.4343V63.444C35.8903 65.2934 35.0021 65.0798 34.9033 65.0965C33.4638 63.9836 32.6146 62.2685 32.6146 60.4386C32.6146 58.609 33.4636 56.8939 34.9031 55.7811C35.0427 55.8048 35.779 55.5492 41.7109 57.4343ZM13.423 61.6839H30.221C30.4056 62.9131 30.8596 64.0767 31.543 65.0967C29.2214 65.0967 15.9121 65.0969 13.423 65.0969V61.6839ZM50.366 60.432C50.3673 60.4385 50.368 60.4453 50.3733 60.4428C50.3716 60.4438 50.3671 60.4463 50.3588 60.4493C48.1166 61.2737 46.0502 62.0038 44.2013 62.6272V58.2509C46.0502 58.8745 50.3642 60.4314 50.366 60.432ZM3.57797 63.6456C2.97815 63.6456 2.49023 63.1577 2.49023 62.5578V58.3203C2.49023 57.7206 2.97815 57.2326 3.57797 57.2326H5.85537V63.6456H3.57797ZM10.9328 66.9265H8.34561V53.9518H10.933V66.9265H10.9328Z" fill="#262626"/>
<path d="M48.6445 21.8237H31.3757C30.1449 21.8237 29.1436 22.825 29.1436 24.0558V41.3248C29.1436 42.5554 30.145 43.5567 31.3757 43.5567H38.276C38.8985 49.2724 43.7528 53.7361 49.6314 53.7361C55.9309 53.7361 61.056 48.611 61.056 42.3116C61.056 36.4329 56.5923 31.5788 50.8766 30.9562V24.0558C50.8766 22.825 49.8751 21.8237 48.6445 21.8237ZM31.6337 24.314H48.3862V30.9562C43.0796 31.5341 38.8539 35.7599 38.2758 41.0664H31.6337V24.314ZM48.3863 33.4661V41.0664H40.7858C41.3365 37.1349 44.4546 34.0169 48.3863 33.4661ZM58.5656 42.3116C58.5656 47.2381 54.5576 51.2458 49.6313 51.2458C45.1276 51.2458 41.3934 47.8955 40.7856 43.5567H48.6445C49.8753 43.5567 50.8766 42.5554 50.8766 41.3248V33.4661C55.2154 34.074 58.5656 37.8079 58.5656 42.3116Z" fill="#262626"/>
</svg>
