<svg width="91" height="80" viewBox="0 0 91 80" fill="none" xmlns="http://www.w3.org/2000/svg">
<rect x="49" y="21" width="41.0256" height="40" fill="#E5FF7B"/>
<path d="M39.9982 0.308105C34.6159 0.308105 30.237 4.68701 30.237 10.0694V23.6729C30.237 25.1078 30.7381 26.509 31.6478 27.6186L34.6771 31.3131C35.3112 32.0864 35.6604 33.0629 35.6604 34.0629V37.505C35.6604 37.5075 35.6607 37.51 35.6607 37.5125V51.8476C34.6371 52.1147 33.8782 53.0445 33.8782 54.1506V78.0469C33.8782 79.1239 34.7543 80 35.8313 80H44.1649C45.242 80 46.1181 79.1239 46.1181 78.0469V73.3062C46.1181 72.659 45.5934 72.1344 44.9462 72.1344C44.299 72.1344 43.7743 72.659 43.7743 73.3062V77.6562H36.222V62.3519H43.7743V67.8375C43.7743 68.4847 44.299 69.0094 44.9462 69.0094C45.5934 69.0094 46.1181 68.4847 46.1181 67.8375V54.1506C46.1181 53.0445 45.3593 52.1147 44.3356 51.8476V37.5125C44.3356 37.51 44.3359 37.5075 44.3359 37.505V34.0629C44.3359 33.0629 44.6851 32.0864 45.3192 31.3131L48.3485 27.6186C49.2584 26.509 49.7593 25.1078 49.7593 23.6729V10.0694C49.7595 4.68701 45.3806 0.308105 39.9982 0.308105ZM41.9918 51.7679H38.0043V38.6767H41.9918V51.7679ZM36.222 54.1504C36.222 54.129 36.2393 54.1117 36.2607 54.1117H36.819C36.8235 54.1117 36.8281 54.1123 36.8326 54.1123C36.8371 54.1123 36.8417 54.1117 36.8462 54.1117H43.1501C43.1546 54.1117 43.1592 54.1123 43.1637 54.1123C43.1682 54.1123 43.1728 54.1117 43.1773 54.1117H43.7356C43.757 54.1117 43.7743 54.129 43.7743 54.1504V60.0079H36.222V54.1504ZM47.4157 23.6728C47.4157 24.5673 47.1034 25.4408 46.5362 26.1325L43.5068 29.827C42.5331 31.0145 41.9957 32.5134 41.9926 34.049C41.9926 34.0536 41.992 34.0581 41.992 34.0626V36.3331H38.0045V34.0625C38.0045 34.0579 38.0038 34.0534 38.0038 34.0489C38.0006 32.5133 37.4634 31.0145 36.4896 29.8269L33.4603 26.1323C32.8932 25.4406 32.5809 24.5672 32.5809 23.6726V10.0694C32.5809 5.97935 35.9084 2.65186 39.9984 2.65186C44.0884 2.65186 47.4159 5.97935 47.4159 10.0694V23.6728H47.4157Z" fill="#262626"/>
<path d="M17.7129 2.95953C17.1586 1.18937 15.5398 0 13.685 0C11.8301 0 10.2114 1.18937 9.65701 2.95953L7.99467 8.26828C7.80123 8.88594 8.14513 9.54344 8.76279 9.73672C9.38092 9.93062 10.0379 9.58625 10.2312 8.96859L11.8936 3.65984C12.1401 2.87266 12.8601 2.34375 13.685 2.34375C14.5098 2.34375 15.2298 2.87266 15.4762 3.65984L21.6261 23.2991C22.1042 24.8258 21.8347 26.5148 20.9056 27.8172L17.8114 32.1536C16.862 33.4842 15.3194 34.2784 13.685 34.2784C12.0506 34.2784 10.5079 33.4842 9.55857 32.1536L6.46435 27.8172C5.53513 26.5148 5.26576 24.8258 5.74388 23.2991L8.66873 13.9584C8.86216 13.3408 8.51826 12.6833 7.9006 12.49C7.28263 12.2962 6.62545 12.6406 6.43217 13.2581L3.50732 22.5989C2.81107 24.8222 3.20326 27.282 4.5567 29.1788L7.65092 33.5152C8.12435 34.1787 8.7006 34.7484 9.34685 35.2145V51.8478C8.32373 52.1152 7.56529 53.0447 7.56529 54.1506V78.0469C7.56529 79.1239 8.44138 80 9.51841 80H17.8519C18.9289 80 19.805 79.1239 19.805 78.0469V54.1505C19.805 53.0445 19.0465 52.115 18.0233 51.8477V35.2147C18.6695 34.7484 19.2458 34.1787 19.7194 33.515L22.8136 29.1786C24.1669 27.282 24.5592 24.8223 23.8629 22.5988L17.7129 2.95953ZM16.8376 54.1117C16.8422 54.1117 16.8467 54.1123 16.8512 54.1123C16.8558 54.1123 16.8603 54.1117 16.8648 54.1117H17.4223C17.4437 54.1117 17.4611 54.1291 17.4611 54.1505V60.008H9.90888V54.1505C9.90888 54.1291 9.92623 54.1117 9.94763 54.1117H10.505C10.5095 54.1117 10.514 54.1123 10.5186 54.1123C10.5231 54.1123 10.5276 54.1117 10.5322 54.1117H16.8376ZM9.90888 77.6562V62.3519H17.4611V77.6562H9.90888ZM15.6794 51.768H11.6903V36.3444C12.9712 36.7036 14.3195 36.7256 15.6794 36.3444V51.768Z" fill="#262626"/>
<path d="M75.6592 14.6602C76.3063 14.6602 76.831 14.1355 76.831 13.4883V2.41568C76.831 1.67865 76.4563 1.00803 75.8287 0.621776C75.2012 0.23537 74.4335 0.203026 73.7754 0.534901L58.4655 8.25896C57.7516 8.61928 57.308 9.3399 57.308 10.1397V23.673C57.308 25.1097 57.8096 26.5115 58.7198 27.6185L61.7484 31.3129C62.3813 32.0847 62.7301 33.0594 62.7313 34.0577C62.7313 34.0577 62.7312 34.0607 62.7312 34.0622V51.8475C61.7079 52.1149 60.9496 53.0444 60.9496 54.1504V78.0466C60.9496 79.1236 61.8257 79.9997 62.9027 79.9997H71.2362C72.3132 79.9997 73.1893 79.1236 73.1893 78.0466V54.1502C73.1893 53.0444 72.4309 52.1147 71.4077 51.8474L71.4076 34.0604C71.4079 33.0613 71.757 32.0858 72.3902 31.3132L75.4212 27.616C76.3304 26.5071 76.831 25.1066 76.831 23.6727V18.9568C76.831 18.3096 76.3063 17.7849 75.6592 17.7849C75.012 17.7849 74.4873 18.3096 74.4873 18.9568V23.6727C74.4873 24.5663 74.1752 25.439 73.6087 26.1301L70.5777 29.8271C69.6013 31.0179 69.0637 32.5218 69.0637 34.0618V36.3316H65.0752V34.0626C65.0752 32.5221 64.5374 31.0177 63.5607 29.8266L60.5312 26.1313C59.9641 25.4413 59.6518 24.5682 59.6518 23.6729V10.2857L74.4873 2.80099V13.4885C74.4873 14.1355 75.012 14.6602 75.6592 14.6602ZM70.2221 54.1115C70.2266 54.1115 70.2312 54.1121 70.2357 54.1121C70.2402 54.1121 70.2448 54.1115 70.2493 54.1115H70.8068C70.8282 54.1115 70.8456 54.1288 70.8456 54.1502V60.0077H63.2934V54.1502C63.2934 54.1288 63.3107 54.1115 63.3321 54.1115H63.8896C63.8941 54.1115 63.8987 54.1121 63.9032 54.1121C63.9077 54.1121 63.9123 54.1115 63.9168 54.1115H70.2221ZM63.2932 77.656V62.3516H70.8454V77.656H63.2932ZM69.0638 38.6757V51.7677H65.0748V38.6757H69.0638Z" fill="#262626"/>
</svg>
